<?xml version="1.0" encoding="UTF-8"?>
<svg xmlns="http://www.w3.org/2000/svg" xmlns:xlink="http://www.w3.org/1999/xlink" viewBox="0 0 48 48" width="48px" height="48px">
<g id="surface57538687">
<path style=" stroke:none;fill-rule:nonzero;fill:rgb(100%,30.19608%,33.333334%);fill-opacity:1;" d="M 44 24 C 44 35.046875 35.046875 44 24 44 C 12.953125 44 4 35.046875 4 24 C 4 12.953125 12.953125 4 24 4 C 35.046875 4 44 12.953125 44 24 Z M 44 24 "/>
<path style=" stroke:none;fill-rule:nonzero;fill:rgb(100%,100%,100%);fill-opacity:1;" d="M 22.492188 30.691406 C 21.914062 30.691406 21.339844 30.46875 20.898438 30.03125 L 14.816406 23.945312 C 13.9375 23.070312 13.9375 21.644531 14.816406 20.765625 C 15.695312 19.886719 17.121094 19.886719 18 20.765625 L 24.082031 26.847656 C 24.960938 27.726562 24.960938 29.152344 24.082031 30.03125 C 23.644531 30.46875 23.066406 30.691406 22.492188 30.691406 Z M 22.492188 30.691406 "/>
<path style=" stroke:none;fill-rule:nonzero;fill:rgb(100%,100%,100%);fill-opacity:1;" d="M 22.492188 30.691406 C 21.914062 30.691406 21.339844 30.46875 20.898438 30.03125 C 20.019531 29.152344 20.019531 27.726562 20.898438 26.847656 L 30.4375 17.308594 C 31.316406 16.429688 32.742188 16.429688 33.621094 17.308594 C 34.5 18.1875 34.5 19.613281 33.621094 20.492188 L 24.082031 30.03125 C 23.644531 30.46875 23.066406 30.691406 22.492188 30.691406 Z M 22.492188 30.691406 "/>
</g>
</svg>
